<mxfile host="Electron" modified="2025-03-05T07:02:33.123Z" agent="Mozilla/5.0 (Windows NT 10.0; Win64; x64) AppleWebKit/537.36 (KHTML, like Gecko) draw.io/21.6.1 Chrome/112.0.5615.204 Electron/24.6.1 Safari/537.36" etag="OWA0evJI524ueXszi6UH" version="21.6.1" type="device">
  <diagram name="Page-1" id="e7e014a7-5840-1c2e-5031-d8a46d1fe8dd">
    <mxGraphModel dx="1036" dy="606" grid="1" gridSize="10" guides="1" tooltips="1" connect="1" arrows="1" fold="1" page="1" pageScale="1" pageWidth="1169" pageHeight="826" background="none" math="0" shadow="0">
      <root>
        <mxCell id="0" />
        <mxCell id="1" parent="0" />
        <mxCell id="Gs0ZBiKjtMknKWzkRTu3-21" value="User" style="swimlane;whiteSpace=wrap;labelBackgroundColor=none;fillColor=#dae8fc;strokeColor=#6c8ebf;" parent="1" vertex="1">
          <mxGeometry x="155" y="80" width="280" height="430" as="geometry" />
        </mxCell>
        <mxCell id="Gs0ZBiKjtMknKWzkRTu3-22" value="" style="edgeStyle=orthogonalEdgeStyle;rounded=0;orthogonalLoop=1;jettySize=auto;html=1;" parent="Gs0ZBiKjtMknKWzkRTu3-21" source="Gs0ZBiKjtMknKWzkRTu3-23" target="Gs0ZBiKjtMknKWzkRTu3-24" edge="1">
          <mxGeometry relative="1" as="geometry">
            <mxPoint x="139.98275862068965" y="82" as="targetPoint" />
            <Array as="points" />
          </mxGeometry>
        </mxCell>
        <mxCell id="Gs0ZBiKjtMknKWzkRTu3-23" value="" style="ellipse;shape=startState;fillColor=#000000;strokeColor=#ff0000;" parent="Gs0ZBiKjtMknKWzkRTu3-21" vertex="1">
          <mxGeometry x="125" y="30" width="30" height="30" as="geometry" />
        </mxCell>
        <mxCell id="Gs0ZBiKjtMknKWzkRTu3-24" value="&lt;span style=&quot;font-size: 10px;&quot;&gt;1.&amp;nbsp;&lt;/span&gt;Enters a keyword into the search bar or selects advanced filters" style="rounded=1;whiteSpace=wrap;html=1;verticalAlign=middle;" parent="Gs0ZBiKjtMknKWzkRTu3-21" vertex="1">
          <mxGeometry x="65" y="80" width="150" height="60" as="geometry" />
        </mxCell>
        <mxCell id="Gs0ZBiKjtMknKWzkRTu3-26" value="System" style="swimlane;whiteSpace=wrap;fillColor=#dae8fc;strokeColor=#6c8ebf;" parent="1" vertex="1">
          <mxGeometry x="435" y="80" width="275" height="430" as="geometry" />
        </mxCell>
        <mxCell id="Gs0ZBiKjtMknKWzkRTu3-27" value="&lt;font style=&quot;font-size: 10px;&quot;&gt;&lt;font style=&quot;font-size: 10px;&quot;&gt;2. Retrieves matching products from the database&lt;/font&gt;&lt;/font&gt;" style="rounded=1;whiteSpace=wrap;html=1;verticalAlign=middle;" parent="Gs0ZBiKjtMknKWzkRTu3-26" vertex="1">
          <mxGeometry x="74.32000000000001" y="80" width="126.37" height="55" as="geometry" />
        </mxCell>
        <mxCell id="PZjOYhNzaM_pIprQR0nu-8" value="" style="edgeStyle=orthogonalEdgeStyle;rounded=0;orthogonalLoop=1;jettySize=auto;html=1;" parent="Gs0ZBiKjtMknKWzkRTu3-26" source="Gs0ZBiKjtMknKWzkRTu3-29" target="Gs0ZBiKjtMknKWzkRTu3-33" edge="1">
          <mxGeometry relative="1" as="geometry">
            <Array as="points">
              <mxPoint x="138" y="220" />
              <mxPoint x="138" y="220" />
            </Array>
          </mxGeometry>
        </mxCell>
        <mxCell id="Gs0ZBiKjtMknKWzkRTu3-29" value="&lt;font style=&quot;font-size: 10px;&quot;&gt;3. Checks the results&lt;/font&gt;" style="rounded=1;whiteSpace=wrap;html=1;verticalAlign=middle;" parent="Gs0ZBiKjtMknKWzkRTu3-26" vertex="1">
          <mxGeometry x="87.63" y="168" width="99.75" height="40" as="geometry" />
        </mxCell>
        <mxCell id="Gs0ZBiKjtMknKWzkRTu3-30" style="edgeStyle=orthogonalEdgeStyle;rounded=0;orthogonalLoop=1;jettySize=auto;html=1;" parent="Gs0ZBiKjtMknKWzkRTu3-26" source="Gs0ZBiKjtMknKWzkRTu3-27" target="Gs0ZBiKjtMknKWzkRTu3-29" edge="1">
          <mxGeometry relative="1" as="geometry">
            <Array as="points">
              <mxPoint x="135" y="150" />
              <mxPoint x="135" y="150" />
            </Array>
          </mxGeometry>
        </mxCell>
        <mxCell id="PZjOYhNzaM_pIprQR0nu-9" style="edgeStyle=orthogonalEdgeStyle;rounded=0;orthogonalLoop=1;jettySize=auto;html=1;" parent="Gs0ZBiKjtMknKWzkRTu3-26" source="Gs0ZBiKjtMknKWzkRTu3-33" target="Gs0ZBiKjtMknKWzkRTu3-34" edge="1">
          <mxGeometry relative="1" as="geometry">
            <Array as="points">
              <mxPoint x="65" y="260" />
            </Array>
          </mxGeometry>
        </mxCell>
        <mxCell id="PZjOYhNzaM_pIprQR0nu-11" style="edgeStyle=orthogonalEdgeStyle;rounded=0;orthogonalLoop=1;jettySize=auto;html=1;" parent="Gs0ZBiKjtMknKWzkRTu3-26" source="Gs0ZBiKjtMknKWzkRTu3-33" target="Gs0ZBiKjtMknKWzkRTu3-35" edge="1">
          <mxGeometry relative="1" as="geometry">
            <Array as="points">
              <mxPoint x="205" y="260" />
            </Array>
          </mxGeometry>
        </mxCell>
        <mxCell id="Gs0ZBiKjtMknKWzkRTu3-33" value="Have results?" style="rhombus;fillColor=#ffffc0;strokeColor=#ff0000;whiteSpace=wrap;fontSize=10;" parent="Gs0ZBiKjtMknKWzkRTu3-26" vertex="1">
          <mxGeometry x="98.44" y="240" width="78.13" height="40" as="geometry" />
        </mxCell>
        <mxCell id="PZjOYhNzaM_pIprQR0nu-13" style="edgeStyle=orthogonalEdgeStyle;rounded=0;orthogonalLoop=1;jettySize=auto;html=1;" parent="Gs0ZBiKjtMknKWzkRTu3-26" source="Gs0ZBiKjtMknKWzkRTu3-34" target="Gs0ZBiKjtMknKWzkRTu3-36" edge="1">
          <mxGeometry relative="1" as="geometry">
            <Array as="points">
              <mxPoint x="65" y="375" />
            </Array>
          </mxGeometry>
        </mxCell>
        <mxCell id="Gs0ZBiKjtMknKWzkRTu3-34" value="&lt;font style=&quot;font-size: 10px;&quot;&gt;&lt;font style=&quot;font-size: 10px;&quot;&gt;4.&amp;nbsp;&lt;/font&gt;Display list of related products&lt;/font&gt;" style="rounded=1;whiteSpace=wrap;html=1;verticalAlign=middle;" parent="Gs0ZBiKjtMknKWzkRTu3-26" vertex="1">
          <mxGeometry x="15.379999999999999" y="290" width="99.5" height="50" as="geometry" />
        </mxCell>
        <mxCell id="PZjOYhNzaM_pIprQR0nu-12" style="edgeStyle=orthogonalEdgeStyle;rounded=0;orthogonalLoop=1;jettySize=auto;html=1;" parent="Gs0ZBiKjtMknKWzkRTu3-26" source="Gs0ZBiKjtMknKWzkRTu3-35" target="Gs0ZBiKjtMknKWzkRTu3-36" edge="1">
          <mxGeometry relative="1" as="geometry">
            <Array as="points">
              <mxPoint x="205" y="375" />
            </Array>
          </mxGeometry>
        </mxCell>
        <mxCell id="Gs0ZBiKjtMknKWzkRTu3-35" value="&lt;font style=&quot;font-size: 10px;&quot;&gt;4a1. Display the message &quot;No products found&quot;&lt;/font&gt;" style="rounded=1;whiteSpace=wrap;html=1;verticalAlign=middle;" parent="Gs0ZBiKjtMknKWzkRTu3-26" vertex="1">
          <mxGeometry x="160" y="290" width="100" height="50" as="geometry" />
        </mxCell>
        <mxCell id="Gs0ZBiKjtMknKWzkRTu3-36" value="" style="ellipse;html=1;shape=endState;fillColor=#000000;strokeColor=#ff0000;fontSize=10;" parent="Gs0ZBiKjtMknKWzkRTu3-26" vertex="1">
          <mxGeometry x="120" y="360" width="30" height="30" as="geometry" />
        </mxCell>
        <mxCell id="Gs0ZBiKjtMknKWzkRTu3-39" value="&lt;font size=&quot;1&quot;&gt;yes&lt;/font&gt;" style="text;html=1;align=center;verticalAlign=middle;resizable=0;points=[];autosize=1;strokeColor=none;fillColor=none;" parent="Gs0ZBiKjtMknKWzkRTu3-26" vertex="1">
          <mxGeometry x="60" y="250" width="40" height="30" as="geometry" />
        </mxCell>
        <mxCell id="Gs0ZBiKjtMknKWzkRTu3-40" value="&lt;font size=&quot;1&quot;&gt;no&lt;/font&gt;" style="text;html=1;align=center;verticalAlign=middle;resizable=0;points=[];autosize=1;strokeColor=none;fillColor=none;" parent="Gs0ZBiKjtMknKWzkRTu3-26" vertex="1">
          <mxGeometry x="176.57" y="250" width="30" height="30" as="geometry" />
        </mxCell>
        <mxCell id="Gs0ZBiKjtMknKWzkRTu3-41" style="edgeStyle=orthogonalEdgeStyle;rounded=0;orthogonalLoop=1;jettySize=auto;html=1;" parent="1" source="Gs0ZBiKjtMknKWzkRTu3-24" target="Gs0ZBiKjtMknKWzkRTu3-27" edge="1">
          <mxGeometry relative="1" as="geometry">
            <mxPoint x="359.5" y="187" as="sourcePoint" />
            <mxPoint x="511" y="211" as="targetPoint" />
            <Array as="points">
              <mxPoint x="420" y="190" />
              <mxPoint x="420" y="190" />
            </Array>
          </mxGeometry>
        </mxCell>
      </root>
    </mxGraphModel>
  </diagram>
</mxfile>
